<svg width="39" height="45" viewBox="0 0 39 45" fill="none" xmlns="http://www.w3.org/2000/svg">
<path d="M19.2 43.2C16.1436 43.2005 13.1247 42.5262 10.359 41.2253C7.59321 39.9244 5.14873 38.029 3.20001 35.6744V43.2C3.20001 43.6243 3.36858 44.0313 3.66864 44.3314C3.9687 44.6314 4.37567 44.8 4.80001 44.8H33.6C34.0244 44.8 34.4313 44.6314 34.7314 44.3314C35.0314 44.0313 35.2 43.6243 35.2 43.2V35.6744C33.2513 38.029 30.8068 39.9244 28.041 41.2253C25.2753 42.5262 22.2564 43.2005 19.2 43.2ZM17.6 12.8H20.8V16H17.6V12.8ZM8.00001 12.8H11.2V16H8.00001V12.8ZM22.4 12.8H25.6V16H22.4V12.8ZM27.2 12.8H30.4008V16H27.2V12.8ZM12.8 12.8H16V16H12.8V12.8Z" fill="white"/>
<path d="M4.28158 23.4728C4.21005 23.5504 4.15587 23.6423 4.12263 23.7424C4.08938 23.8426 4.07784 23.9486 4.08878 24.0536C4.49324 27.7789 6.25954 31.2236 9.04856 33.7262C11.8376 36.2288 15.4528 37.613 19.2 37.613C22.9472 37.613 26.5624 36.2288 29.3514 33.7262C32.1404 31.2236 33.9067 27.7789 34.3112 24.0536C34.3221 23.9488 34.3105 23.8428 34.2772 23.7428C34.244 23.6428 34.1898 23.5511 34.1184 23.4736C34.0419 23.3877 33.9481 23.3189 33.8432 23.2718C33.7383 23.2246 33.6246 23.2002 33.5096 23.2H4.89038C4.77542 23.2001 4.66177 23.2244 4.55686 23.2714C4.45195 23.3184 4.35814 23.387 4.28158 23.4728ZM16.1344 29.9528L19.3344 25.1528C19.4521 24.9763 19.6352 24.8537 19.8433 24.8122C20.0514 24.7706 20.2675 24.8134 20.444 24.9312C20.6205 25.049 20.743 25.232 20.7846 25.4401C20.8261 25.6482 20.7833 25.8643 20.6656 26.0408L18.2944 29.6H21.6C21.7448 29.6 21.8869 29.6393 22.0112 29.7137C22.1354 29.7881 22.2372 29.8949 22.3055 30.0226C22.3738 30.1503 22.4062 30.2941 22.3992 30.4388C22.3921 30.5835 22.346 30.7235 22.2656 30.844L19.0656 35.644C19.0073 35.7314 18.9323 35.8065 18.845 35.8649C18.7577 35.9234 18.6597 35.964 18.5567 35.9846C18.4536 36.0052 18.3476 36.0053 18.2445 35.9848C18.1414 35.9644 18.0434 35.9239 17.956 35.8656C17.8686 35.8073 17.7935 35.7323 17.7351 35.645C17.6766 35.5577 17.636 35.4597 17.6154 35.3567C17.5948 35.2537 17.5947 35.1476 17.6151 35.0445C17.6356 34.9414 17.6761 34.8434 17.7344 34.756L20.1056 31.2H16.8C16.6551 31.2 16.513 31.1607 16.3888 31.0863C16.2645 31.0119 16.1628 30.9051 16.0945 30.7774C16.0262 30.6497 15.9938 30.5058 16.0008 30.3612C16.0078 30.2165 16.054 30.0765 16.1344 29.956V29.9528Z" fill="white"/>
<path d="M19.2 3.2C15.4026 3.2 11.6905 4.32606 8.53306 6.43578C5.37564 8.5455 2.91472 11.5441 1.46152 15.0525C0.00831909 18.5608 -0.371905 22.4213 0.368931 26.1457C1.10977 29.8702 2.93839 33.2913 5.62356 35.9764C8.30873 38.6616 11.7298 40.4902 15.4543 41.2311C19.1787 41.9719 23.0392 41.5917 26.5475 40.1385C30.0559 38.6853 33.0545 36.2244 35.1642 33.0669C37.274 29.9095 38.4 26.1974 38.4 22.4C38.3941 17.3097 36.3693 12.4295 32.7699 8.83009C29.1705 5.23068 24.2903 3.20593 19.2 3.2ZM6.40001 12.8C6.40001 12.3757 6.56858 11.9687 6.86864 11.6686C7.1687 11.3686 7.57566 11.2 8.00001 11.2H30.4C30.8244 11.2 31.2313 11.3686 31.5314 11.6686C31.8314 11.9687 32 12.3757 32 12.8V16C32 16.4243 31.8314 16.8313 31.5314 17.1314C31.2313 17.4314 30.8244 17.6 30.4 17.6H8.00001C7.57566 17.6 7.1687 17.4314 6.86864 17.1314C6.56858 16.8313 6.40001 16.4243 6.40001 16V12.8ZM35.3096 22.404C35.5304 22.6492 35.6972 22.9381 35.7992 23.2519C35.9011 23.5657 35.936 23.8974 35.9016 24.2256C35.454 28.3426 33.5016 32.1493 30.4191 34.9148C27.3366 37.6804 23.3413 39.21 19.2 39.21C15.0587 39.21 11.0634 37.6804 7.98089 34.9148C4.89839 32.1493 2.94597 28.3426 2.49841 24.2256C2.46391 23.8973 2.49879 23.5654 2.60077 23.2515C2.70276 22.9376 2.86957 22.6485 3.09041 22.4032C3.3177 22.1513 3.59538 21.9499 3.90545 21.8121C4.21553 21.6742 4.55109 21.6031 4.89041 21.6032H33.5096C33.849 21.6032 34.1846 21.6745 34.4947 21.8124C34.8047 21.9504 35.0824 22.1519 35.3096 22.404Z" fill="white"/>
<path d="M3.20001 1.6V9.1256C5.14901 6.77129 7.59355 4.87611 10.3592 3.57524C13.1249 2.27437 16.1436 1.59988 19.2 1.59988C22.2564 1.59988 25.2751 2.27437 28.0408 3.57524C30.8065 4.87611 33.251 6.77129 35.2 9.1256V1.6C35.2 1.17565 35.0314 0.768687 34.7314 0.468629C34.4313 0.168571 34.0244 0 33.6 0H4.80001C4.37567 0 3.9687 0.168571 3.66864 0.468629C3.36858 0.768687 3.20001 1.17565 3.20001 1.6Z" fill="white"/>
</svg>
