<svg width="20" height="20" viewBox="0 0 20 20" fill="none" xmlns="http://www.w3.org/2000/svg">
<rect width="20" height="20" rx="4" fill="#8441F9"/>
<path d="M15.4227 8.06671C15.3894 7.99663 15.3369 7.93742 15.2714 7.89596C15.2058 7.8545 15.1298 7.83249 15.0522 7.83249H10.9384L13.4284 3.61882C13.4652 3.55652 13.4849 3.4856 13.4854 3.41325C13.486 3.3409 13.4674 3.26969 13.4315 3.20685C13.3956 3.14401 13.3438 3.09178 13.2812 3.05545C13.2186 3.01912 13.1476 2.99999 13.0752 3L9.56061 3.00038C9.48894 3.0004 9.41853 3.01919 9.35638 3.05489C9.29423 3.09059 9.24252 3.14195 9.2064 3.20385L4.59351 11.1112C4.55714 11.1735 4.53785 11.2444 4.5376 11.3165C4.53735 11.3887 4.55614 11.4596 4.59208 11.5222C4.62802 11.5848 4.67983 11.6367 4.74228 11.6729C4.80473 11.709 4.87562 11.7281 4.94777 11.728H9.03534L7.84479 16.4903C7.82969 16.5508 7.82856 16.6139 7.84148 16.6748C7.85441 16.7358 7.88105 16.793 7.91938 16.8421C7.95771 16.8913 8.00674 16.931 8.06272 16.9584C8.11871 16.9857 8.18019 17 8.24251 17C8.36271 17 8.48051 16.9472 8.56051 16.8491L15.37 8.50192C15.4191 8.44179 15.4501 8.36898 15.4594 8.29194C15.4687 8.21491 15.456 8.13681 15.4227 8.06671Z" fill="white"/>
</svg>
