<svg width="20" height="20" viewBox="0 0 20 20" fill="none" xmlns="http://www.w3.org/2000/svg">
<rect width="20" height="20" rx="4" fill="#4197F9"/>
<g clip-path="url(#clip0_52_102)">
<path d="M11.5938 5.33382C10.9254 4.37357 10.348 3.54418 10.208 3.14708C10.1929 3.10446 10.1652 3.06748 10.1284 3.04116C10.0917 3.01483 10.0478 3.00043 10.0026 2.99989C9.91694 3.0025 9.82652 3.05546 9.79378 3.142C9.65121 3.51751 9.1031 4.30465 8.46836 5.21675C7.01473 7.30433 5.02399 10.1635 5.02399 12.0237C5.02399 14.7676 7.25612 16.9999 10 16.9999C12.7439 16.9999 14.976 14.7676 14.976 12.0237C14.976 10.1936 13.0211 7.38478 11.5938 5.33382Z" fill="white"/>
</g>
<defs>
<clipPath id="clip0_52_102">
<rect width="14" height="14" fill="white" transform="translate(3 3)"/>
</clipPath>
</defs>
</svg>
