<svg width="20" height="20" viewBox="0 0 20 20" fill="none" xmlns="http://www.w3.org/2000/svg">
<rect width="20" height="20" rx="4" fill="#E53935"/>
<g clip-path="url(#clip0_52_100)">
<path d="M16.21 4.13849H15.6V3.94599C15.559 2.69424 13.739 2.68599 13.6975 3.94599V4.13849H12.795C12.9358 2.75899 10.9855 2.55999 10.8925 3.94599V4.13849H9.99V3.94599C9.90225 2.56974 7.952 2.74849 8.09 4.13849H7.1875V3.94599C7.14975 2.69674 5.327 2.68524 5.285 3.94599V15.357H4.6225V15.327C4.5895 14.2565 3.033 14.2565 3 15.327V15.887C3 16.3348 3.365 16.7 3.81 16.7C4.26875 16.7008 4.6385 16.315 4.6225 15.857H5.285C5.21825 16.4485 5.61625 16.9988 6.235 17C6.8575 16.9968 7.25375 16.4513 7.1875 15.857H8.09C7.95 17.24 9.8985 17.4325 9.99 16.0495V15.857H10.8925V16.0495C10.93 17.3013 12.7565 17.3095 12.795 16.0495V15.857H13.6975C13.5745 17.3695 15.7188 17.3755 15.6 15.857H16.21C16.645 15.857 17 15.502 17 15.067V4.92824C17 4.49324 16.645 4.13849 16.21 4.13849ZM8.09 15.357H7.1875V4.63849H8.09V15.357ZM10.8925 15.357H9.99V4.63849H10.8925V15.357ZM13.6975 15.357H12.795V4.63849H13.6975V15.357ZM16.5 15.067C16.5 15.227 16.37 15.357 16.21 15.357H15.6V4.63849H16.21C16.37 4.63849 16.5 4.76849 16.5 4.92849V15.067Z" fill="white"/>
</g>
<defs>
<clipPath id="clip0_52_100">
<rect width="14" height="14" fill="white" transform="translate(3 3)"/>
</clipPath>
</defs>
</svg>
