<svg width="18" height="18" viewBox="0 0 18 18" fill="none" xmlns="http://www.w3.org/2000/svg">
<path d="M15.465 6.3375C14.6775 2.8725 11.655 1.3125 9.00001 1.3125C9.00001 1.3125 9.00001 1.3125 8.99251 1.3125C6.34501 1.3125 3.31501 2.865 2.52751 6.33C1.65001 10.2 4.02001 13.4775 6.16501 15.54C6.96001 16.305 7.98001 16.6875 9.00001 16.6875C10.02 16.6875 11.04 16.305 11.8275 15.54C13.9725 13.4775 16.3425 10.2075 15.465 6.3375ZM9.00001 10.095C7.69501 10.095 6.63751 9.0375 6.63751 7.7325C6.63751 6.4275 7.69501 5.37 9.00001 5.37C10.305 5.37 11.3625 6.4275 11.3625 7.7325C11.3625 9.0375 10.305 10.095 9.00001 10.095Z" fill="black"/>
</svg>
