<svg width="56" height="56" viewBox="0 0 56 56" fill="none" xmlns="http://www.w3.org/2000/svg">
<path d="M28 52.2667C24.4342 52.2672 20.9122 51.4805 17.6855 49.9629C14.4587 48.4452 11.6068 46.2339 9.33333 43.4868V52.2667C9.33333 52.7617 9.52999 53.2365 9.88006 53.5866C10.2301 53.9367 10.7049 54.1333 11.2 54.1333H44.8C45.2951 54.1333 45.7699 53.9367 46.1199 53.5866C46.47 53.2365 46.6667 52.7617 46.6667 52.2667V43.4868C44.3932 46.2339 41.5413 48.4452 38.3145 49.9629C35.0878 51.4805 31.5658 52.2672 28 52.2667ZM26.1333 16.8H29.8667V20.5333H26.1333V16.8ZM14.9333 16.8H18.6667V20.5333H14.9333V16.8ZM31.7333 16.8H35.4667V20.5333H31.7333V16.8ZM37.3333 16.8H41.0676V20.5333H37.3333V16.8ZM20.5333 16.8H24.2667V20.5333H20.5333V16.8Z" fill="white"/>
<path d="M10.5952 29.2516C10.5118 29.3421 10.4485 29.4493 10.4098 29.5662C10.371 29.683 10.3575 29.8068 10.3703 29.9292C10.8421 34.2754 12.9028 38.2942 16.1567 41.2139C19.4105 44.1336 23.6282 45.7485 28 45.7485C32.3718 45.7485 36.5895 44.1336 39.8433 41.2139C43.0972 38.2942 45.1579 34.2754 45.6297 29.9292C45.6424 29.8069 45.6289 29.6833 45.5901 29.5666C45.5513 29.45 45.4882 29.3429 45.4048 29.2525C45.3156 29.1523 45.2062 29.0721 45.0838 29.0171C44.9614 28.9621 44.8287 28.9335 44.6945 28.9333H11.3055C11.1713 28.9334 11.0388 28.9618 10.9164 29.0166C10.794 29.0715 10.6845 29.1516 10.5952 29.2516ZM24.4235 36.8116L28.1568 31.2116C28.2942 31.0057 28.5078 30.8627 28.7505 30.8142C28.9933 30.7657 29.2454 30.8157 29.4513 30.9531C29.6573 31.0904 29.8002 31.304 29.8487 31.5468C29.8972 31.7896 29.8473 32.0416 29.7099 32.2476L26.9435 36.4H30.8C30.969 36.4 31.1348 36.4458 31.2797 36.5326C31.4247 36.6195 31.5434 36.744 31.6231 36.893C31.7028 37.042 31.7406 37.2098 31.7324 37.3786C31.7242 37.5474 31.6703 37.7108 31.5765 37.8513L27.8432 43.4513C27.7752 43.5533 27.6877 43.6409 27.5859 43.7091C27.484 43.7773 27.3697 43.8247 27.2495 43.8487C27.1293 43.8727 27.0055 43.8728 26.8853 43.849C26.765 43.8252 26.6506 43.7779 26.5487 43.7099C26.4467 43.6418 26.3591 43.5544 26.2909 43.4525C26.2228 43.3507 26.1753 43.2364 26.1513 43.1161C26.1273 42.9959 26.1272 42.8722 26.151 42.7519C26.1748 42.6317 26.2221 42.5173 26.2901 42.4153L29.0565 38.2667H25.2C25.031 38.2667 24.8652 38.2208 24.7203 38.134C24.5753 38.0472 24.4566 37.9226 24.3769 37.7736C24.2972 37.6247 24.2594 37.4568 24.2676 37.2881C24.2758 37.1193 24.3297 36.9559 24.4235 36.8153V36.8116Z" fill="white"/>
<path d="M28 5.6C23.5697 5.6 19.2389 6.91374 15.5552 9.37508C11.8716 11.8364 9.0005 15.3348 7.3051 19.4279C5.6097 23.521 5.1661 28.0248 6.03041 32.37C6.89472 36.7152 9.02811 40.7065 12.1608 43.8392C15.2935 46.9719 19.2848 49.1053 23.63 49.9696C27.9752 50.8339 32.479 50.3903 36.5721 48.6949C40.6652 46.9995 44.1636 44.1284 46.6249 40.4448C49.0863 36.7611 50.4 32.4303 50.4 28C50.3931 22.0613 48.0309 16.3678 43.8316 12.1684C39.6322 7.96913 33.9387 5.60692 28 5.6ZM13.0667 16.8C13.0667 16.3049 13.2633 15.8301 13.6134 15.4801C13.9635 15.13 14.4383 14.9333 14.9333 14.9333H41.0667C41.5617 14.9333 42.0365 15.13 42.3866 15.4801C42.7367 15.8301 42.9333 16.3049 42.9333 16.8V20.5333C42.9333 21.0284 42.7367 21.5032 42.3866 21.8533C42.0365 22.2033 41.5617 22.4 41.0667 22.4H14.9333C14.4383 22.4 13.9635 22.2033 13.6134 21.8533C13.2633 21.5032 13.0667 21.0284 13.0667 20.5333V16.8ZM46.7945 28.0047C47.0521 28.2908 47.2467 28.6278 47.3657 28.9939C47.4846 29.36 47.5254 29.747 47.4852 30.1299C46.963 34.9331 44.6852 39.3741 41.089 42.6006C37.4927 45.8271 32.8315 47.6116 28 47.6116C23.1685 47.6116 18.5073 45.8271 14.911 42.6006C11.3148 39.3741 9.03696 34.9331 8.5148 30.1299C8.47456 29.7469 8.51524 29.3597 8.63422 28.9934C8.75321 28.6271 8.94782 28.29 9.20547 28.0037C9.47065 27.7098 9.7946 27.4748 10.1564 27.3141C10.5181 27.1533 10.9096 27.0703 11.3055 27.0704H44.6945C45.0905 27.0704 45.482 27.1535 45.8438 27.3145C46.2055 27.4754 46.5294 27.7106 46.7945 28.0047Z" fill="white"/>
<path d="M9.33333 3.73333V12.5132C11.6072 9.76651 14.4591 7.55546 17.6858 6.03778C20.9124 4.5201 24.4342 3.73319 28 3.73319C31.5658 3.73319 35.0876 4.5201 38.3142 6.03778C41.5409 7.55546 44.3928 9.76651 46.6667 12.5132V3.73333C46.6667 3.23826 46.47 2.76347 46.1199 2.4134C45.7699 2.06333 45.2951 1.86667 44.8 1.86667H11.2C10.7049 1.86667 10.2301 2.06333 9.88006 2.4134C9.52999 2.76347 9.33333 3.23826 9.33333 3.73333Z" fill="white"/>
</svg>
