<svg width="113" height="50" viewBox="0 0 113 50" fill="none" xmlns="http://www.w3.org/2000/svg">
<path fill-rule="evenodd" clip-rule="evenodd" d="M110.502 2.77465e-05C104.411 -0.00816412 98.4439 1.79772 93.3036 5.20527C90.3637 7.15017 87.7451 9.57858 85.5496 12.3962C82.8401 10.2931 79.7514 8.782 76.4685 7.95338C73.702 7.25166 70.8417 7.04256 68.0084 7.33493C70.9469 7.63713 73.8111 8.47887 76.4685 9.82126C80.5549 11.8826 84.033 15.0545 86.5367 19.0032C87.1421 17.6866 87.8297 16.4129 88.595 15.1902C90.9597 11.4155 94.0283 8.17522 97.6181 5.66207C102.199 2.454 107.498 0.537476 113 0.0991057C112.168 0.0328515 111.336 -0.000198715 110.502 2.77465e-05Z" fill="#0F9AEF"/>
<path fill-rule="evenodd" clip-rule="evenodd" d="M74.0442 16.6264V46.0859H71.5439C70.2107 46.0859 69.1236 44.97 69.0506 43.5672L69.0436 16.6264H64.0429V41.9903C64.0429 46.4134 67.4014 50 71.5439 50H79.0448V16.6264H74.0442ZM59.0073 24.636C59.0073 20.2119 55.6489 16.6264 51.5064 16.6264H44.0055V50H49.0061V35.399H51.5064C52.8396 35.399 53.9267 36.5191 53.9997 37.9229L54.0067 50H59.0073V39.0284C59.0111 37.8806 58.7801 36.7452 58.3296 35.698C57.8791 34.6507 57.2196 33.7157 56.395 32.9555C57.2194 32.1952 57.8788 31.2604 58.3293 30.2134C58.7798 29.1663 59.0109 28.0311 59.0073 26.8835V24.636ZM53.5136 30.3408C53.2735 30.6308 52.9762 30.8633 52.6421 31.0226C52.3079 31.1819 51.9448 31.2642 51.5774 31.2638H49.0061V20.7981H51.5764C51.991 20.7975 52.3996 20.9023 52.7667 21.1032C53.1339 21.3042 53.4486 21.5954 53.6837 21.9515C54.2767 22.814 54.6718 24.319 54.6718 26.0336C54.6718 27.8128 54.2477 29.3626 53.6176 30.2073C53.5838 30.2525 53.5491 30.297 53.5136 30.3408ZM36.0045 44.7854H41.0051V50H36.0045V44.7854ZM26.0032 16.6264H21.0026V50H33.0041V44.7854H26.0032V16.6264ZM8.81909 36.2699L5.14064 16.6264H0L6.24677 50H11.3904L17.6372 16.6264H12.4955L8.81909 36.2699Z" fill="#F97D41"/>
</svg>
